<svg xmlns="http://www.w3.org/2000/svg" width="41">
<rect x="0" y="33.8%" width="2" height="66.2%" rx="1.5" ry="1.5" fill="#ee924f"></rect>
<rect x="3" y="42.5%" width="2" height="57.5%" rx="1.5" ry="1.5" fill="#f3b45f"></rect>
<rect x="6" y="10.7%" width="2" height="89.3%" rx="1.5" ry="1.5" fill="#d1352b"></rect>
<rect x="9" y="20.0%" width="2" height="80.0%" rx="1.5" ry="1.5" fill="#e95b3b"></rect>
<rect x="12" y="27.9%" width="2" height="72.1%" rx="1.5" ry="1.5" fill="#e95b3b"></rect>
<rect x="15" y="20.8%" width="2" height="79.2%" rx="1.5" ry="1.5" fill="#e95b3b"></rect>
<rect x="18" y="32.3%" width="2" height="67.7%" rx="1.5" ry="1.5" fill="#ee924f"></rect>
<rect x="21" y="43.1%" width="2" height="56.9%" rx="1.5" ry="1.5" fill="#f3b45f"></rect>
<rect x="24" y="34.1%" width="2" height="65.9%" rx="1.5" ry="1.5" fill="#ee924f"></rect>
<rect x="27" y="16.1%" width="2" height="83.9%" rx="1.5" ry="1.5" fill="#d1352b"></rect>
<rect x="30" y="11.7%" width="2" height="88.3%" rx="1.5" ry="1.5" fill="#d1352b"></rect>
<rect x="33" y="12.5%" width="2" height="87.5%" rx="1.5" ry="1.5" fill="#d1352b"></rect>
<rect x="36" y="0.0%" width="2" height="100.0%" rx="1.5" ry="1.5" fill="#a2202c"></rect>
<rect x="39" y="28.9%" width="2" height="71.1%" rx="1.5" ry="1.5" fill="#ee924f"></rect>
</svg>